<?xml version="1.0" encoding="UTF-8"?>
<svg width="24px" height="24px" viewBox="0 0 24 24" version="1.1" xmlns="http://www.w3.org/2000/svg" xmlns:xlink="http://www.w3.org/1999/xlink">
    <title>icon-play</title>
    <g id="官网" stroke="none" stroke-width="1" fill="none" fill-rule="evenodd">
        <g id="首页-viewport大于1260" transform="translate(-506.000000, -558.000000)" stroke="#333333">
            <g id="Slogan" transform="translate(182.000000, 198.000000)">
                <g id="Watch" transform="translate(236.000000, 358.000000)">
                    <g id="icon-play" transform="translate(88.000000, 2.000000)">
                        <circle id="椭圆形" cx="12" cy="12" r="11.5"></circle>
                        <path d="M9.64644661,6.62543858 C10.106736,6.47899197 10.2106711,6.51314835 10.2965995,6.57646405 L10.2965995,6.57646405 L17.1108247,11.5974721 C17.2219797,11.6793758 17.2894137,11.7985801 17.3085829,11.9250973 C17.3248392,12.0323887 17.306385,12.1449392 17.2504494,12.2444598 L17.2504494,12.2444598 L10.2965995,17.4235359 C10.1854445,17.5054396 10.0516145,17.5345351 9.92509731,17.5153658 C9.79858013,17.4961965 9.67937578,17.4287626 9.59747208,17.3176075 C9.53415638,17.2316791 9.5,17.127744 9.5,17.021008 L9.5,17.021008 L9.5,6.97899197 C9.5,6.84092078 9.55596441,6.71592078 9.64644661,6.62543858 Z" id="矩形" fill="#333333"></path>
                    </g>
                </g>
            </g>
        </g>
    </g>
</svg>